<?xml version="1.0" encoding="utf-8"?>
<!-- Generator: Adobe Illustrator 18.0.0, SVG Export Plug-In . SVG Version: 6.00 Build 0)  -->
<!DOCTYPE svg PUBLIC "-//W3C//DTD SVG 1.1//EN" "http://www.w3.org/Graphics/SVG/1.1/DTD/svg11.dtd">
<svg version="1.1" xmlns="http://www.w3.org/2000/svg" xmlns:xlink="http://www.w3.org/1999/xlink" x="0px" y="0px"
	 viewBox="0 0 200 65" enable-background="new 0 0 200 65" xml:space="preserve">
<g id="Layer_1" display="none">
</g>
<g id="Layer_2">
	<g>
		<path fill="#FFFFFF" d="M0,65c0,0,32.3-2.7,49.6-30.1s34-30.2,50.4-30c0-4.9,0-4.9,0-4.9H0V65z"/>
	</g>
	<path display="none" fill="#FFFFFF" d="M200,65c0,0-32.3-2.7-49.6-30.1s-34-30.2-50.4-30c0-4.9,0-4.9,0-4.9l100,0V65z"/>
	<g>
		<path fill="#FFFFFF" d="M200,65c0,0-32.3-2.7-49.6-30.1s-34-30.2-50.4-30c0-4.9,0-4.9,0-4.9l100,0V65z"/>
	</g>
</g>
</svg>
