<?xml version="1.0" standalone="no"?>
<!DOCTYPE svg PUBLIC "-//W3C//DTD SVG 20010904//EN"
 "http://www.w3.org/TR/2001/REC-SVG-20010904/DTD/svg10.dtd">
<svg version="1.0" xmlns="http://www.w3.org/2000/svg"
 width="200.000000pt" height="200.000000pt" viewBox="0 0 200.000000 200.000000"
 preserveAspectRatio="xMidYMid meet">
<metadata>
Created by potrace 1.11, written by Peter Selinger 2001-2013
</metadata>
<g transform="translate(0.000000,200.000000) scale(0.100000,-0.100000)"
fill="#000000" stroke="none">
<path d="M160 1000 l0 -1000 840 0 840 0 0 1000 0 1000 -840 0 -840 0 0 -1000z
m746 -130 c54 -115 99 -208 100 -207 1 1 45 95 99 210 l98 207 118 0 119 0 0
-385 0 -385 -90 0 -90 0 -1 233 0 232 -102 -203 -102 -202 -50 0 -50 0 -102
202 -102 203 0 -232 -1 -233 -90 0 -90 0 0 385 0 385 119 0 119 0 98 -210z"/>
</g>
</svg>
